<svg xmlns="http://www.w3.org/2000/svg" viewBox="-1878.9 1544.1 16 16"><defs><style>.a{fill:#091440;}.b{fill:#fff;}</style></defs><g transform="translate(-2924 856)"><g transform="translate(1045.1 688.1)"><rect class="a" width="16" height="16"/><path class="b" d="M32.275,45.741a.416.416,0,0,0-.135-.351l-1-1.209V44h3.116l2.409,5.283L38.778,44h2.971v.181L40.891,45a.251.251,0,0,0-.1.241v6.045a.251.251,0,0,0,.1.241l.838.823v.181H37.513v-.181l.868-.843c.085-.085.085-.11.085-.241V46.383l-2.414,6.13h-.326l-2.81-6.13v4.109a.567.567,0,0,0,.156.472l1.129,1.37v.181H31v-.181l1.129-1.37a.547.547,0,0,0,.146-.472Z" transform="translate(-28.456 -40.39)"/></g></g></svg>